<?xml version="1.0" encoding="UTF-8" standalone="no"?>
<!DOCTYPE svg PUBLIC "-//W3C//DTD SVG 1.1//EN" "http://www.w3.org/Graphics/SVG/1.1/DTD/svg11.dtd">
<!-- Generated by Microsoft Visio, SVG Export bus_topology.svg Ring topology -->
<svg xmlns="http://www.w3.org/2000/svg" xmlns:xlink="http://www.w3.org/1999/xlink" xmlns:ev="http://www.w3.org/2001/xml-events"
		xmlns:v="http://schemas.microsoft.com/visio/2003/SVGExtensions/" width="11.6929in" height="8.26772in"
		viewBox="0 0 841.89 595.276" xml:space="preserve" color-interpolation-filters="sRGB" class="st11">
	<v:documentProperties v:langID="1033" v:metric="true" v:viewMarkup="false">
		<v:userDefs>
			<v:ud v:nameU="msvSubprocessMaster" v:prompt="" v:val="VT4(Rectangle)"/>
			<v:ud v:nameU="msvNoAutoConnect" v:val="VT0(1):26"/>
		</v:userDefs>
	</v:documentProperties>

	<style type="text/css">
	<![CDATA[
		.st1 {visibility:visible}
		.st2 {fill:#5b9bd5;fill-opacity:0.22;filter:url(#filter_2);stroke:#5b9bd5;stroke-opacity:0.22}
		.st3 {fill:#5b9bd5;stroke:#c7c8c8;stroke-width:0.25}
		.st4 {fill:#feffff;font-family:Calibri;font-size:1.16666em}
		.st5 {font-size:1em}
		.st6 {marker-end:url(#mrkr1-37);marker-start:url(#mrkr1-35);stroke:#5b9bd5;stroke-linecap:round;stroke-linejoin:round;stroke-width:1}
		.st7 {fill:#5b9bd5;fill-opacity:1;stroke:#5b9bd5;stroke-opacity:1;stroke-width:0.28409090909091}
		.st8 {fill:#4f87bb;font-family:Calibri;font-size:0.666664em}
		.st9 {fill:#5b9bd5;fill-opacity:0.25;filter:url(#filter_2);stroke:#5b9bd5;stroke-opacity:0.25}
		.st10 {fill:#4f87bb;stroke:#40709c;stroke-width:0.75}
		.st11 {fill:none;fill-rule:evenodd;font-size:12px;overflow:visible;stroke-linecap:square;stroke-miterlimit:3}
	]]>
	</style>

	<defs id="Markers">
		<g id="lend1">
			<path d="M 1 -1 L 0 0 L 1 1 " style="stroke-linecap:round;stroke-linejoin:round;fill:none"/>
		</g>
		<marker id="mrkr1-35" class="st7" v:arrowType="1" v:arrowSize="2" orient="auto" markerUnits="strokeWidth"
				overflow="visible">
			<use xlink:href="#lend1" transform="scale(3.52) "/>
		</marker>
		<marker id="mrkr1-37" class="st7" v:arrowType="1" v:arrowSize="2" orient="auto" markerUnits="strokeWidth"
				overflow="visible">
			<use xlink:href="#lend1" transform="scale(-3.52,-3.52) "/>
		</marker>
	</defs>
	<defs id="Filters">
		<filter id="filter_2">
			<feGaussianBlur stdDeviation="2"/>
		</filter>
	</defs>
	<g v:mID="26" v:index="11" v:groupContext="foregroundPage">
		<v:userDefs>
			<v:ud v:nameU="msvThemeOrder" v:val="VT0(0):26"/>
		</v:userDefs>
		<title>Ring topology</title>
		<v:pageProperties v:drawingScale="0.0393701" v:pageScale="0.0393701" v:drawingUnits="24" v:shadowOffsetX="8.50394"
				v:shadowOffsetY="-8.50394"/>
		<v:layer v:name="Connector" v:index="0"/>
		<g id="shape1-1" v:mID="1" v:groupContext="shape" transform="translate(507.252,-372.98)">
			<title>Rectangle.1</title>
			<desc>CAN Node 2</desc>
			<v:userDefs>
				<v:ud v:nameU="visVersion" v:val="VT0(15):26"/>
			</v:userDefs>
			<v:textBlock v:margins="rect(4,4,4,4)" v:tabSpace="42.5197"/>
			<v:textRect cx="42.5197" cy="570.472" width="85.04" height="49.6063"/>
			<g id="shadow1-2" v:groupContext="shadow" v:shadowOffsetX="0.345598" v:shadowOffsetY="-1.97279" v:shadowType="1"
					transform="matrix(1,0,0,1,0.345598,1.97279)" class="st1">
				<rect x="0" y="545.669" width="85.0394" height="49.6063" rx="5.66929" ry="5.66929" class="st2"/>
			</g>
			<rect x="0" y="545.669" width="85.0394" height="49.6063" rx="5.66929" ry="5.66929" class="st3"/>
			<text x="30.22" y="566.27" class="st4" v:langID="2057"><v:paragraph v:horizAlign="1"/><v:tabList/>CAN <v:newlineChar/><tspan
						x="22.02" dy="1.2em" class="st5">Node </tspan>2</text>		</g>
		<g id="shape2-8" v:mID="2" v:groupContext="shape" transform="translate(509.117,-184.252)">
			<title>Rectangle.2</title>
			<desc>CAN Node 3</desc>
			<v:userDefs>
				<v:ud v:nameU="visVersion" v:val="VT0(15):26"/>
			</v:userDefs>
			<v:textBlock v:margins="rect(4,4,4,4)" v:tabSpace="42.5197"/>
			<v:textRect cx="42.5197" cy="570.472" width="85.04" height="49.6063"/>
			<g id="shadow2-9" v:groupContext="shadow" v:shadowOffsetX="0.345598" v:shadowOffsetY="-1.97279" v:shadowType="1"
					transform="matrix(1,0,0,1,0.345598,1.97279)" class="st1">
				<rect x="0" y="545.669" width="85.0394" height="49.6063" rx="5.66929" ry="5.66929" class="st2"/>
			</g>
			<rect x="0" y="545.669" width="85.0394" height="49.6063" rx="5.66929" ry="5.66929" class="st3"/>
			<text x="30.22" y="566.27" class="st4" v:langID="2057"><v:paragraph v:horizAlign="1"/><v:tabList/>CAN <v:newlineChar/><tspan
						x="22.02" dy="1.2em" class="st5">Node </tspan>3</text>		</g>
		<g id="shape3-15" v:mID="3" v:groupContext="shape" transform="translate(303.605,-184.998)">
			<title>Rectangle.3</title>
			<desc>CAN Node 4</desc>
			<v:userDefs>
				<v:ud v:nameU="visVersion" v:val="VT0(15):26"/>
			</v:userDefs>
			<v:textBlock v:margins="rect(4,4,4,4)" v:tabSpace="42.5197"/>
			<v:textRect cx="42.5197" cy="570.472" width="85.04" height="49.6063"/>
			<g id="shadow3-16" v:groupContext="shadow" v:shadowOffsetX="0.345598" v:shadowOffsetY="-1.97279" v:shadowType="1"
					transform="matrix(1,0,0,1,0.345598,1.97279)" class="st1">
				<rect x="0" y="545.669" width="85.0394" height="49.6063" rx="5.66929" ry="5.66929" class="st2"/>
			</g>
			<rect x="0" y="545.669" width="85.0394" height="49.6063" rx="5.66929" ry="5.66929" class="st3"/>
			<text x="30.22" y="566.27" class="st4" v:langID="2057"><v:paragraph v:horizAlign="1"/><v:tabList/>CAN <v:newlineChar/><tspan
						x="22.02" dy="1.2em" class="st5">Node </tspan>4</text>		</g>
		<g id="shape4-22" v:mID="4" v:groupContext="shape" transform="translate(302.774,-373.353)">
			<title>Rectangle.5</title>
			<desc>CAN Node 1</desc>
			<v:userDefs>
				<v:ud v:nameU="visVersion" v:val="VT0(15):26"/>
			</v:userDefs>
			<v:textBlock v:margins="rect(4,4,4,4)" v:tabSpace="42.5197"/>
			<v:textRect cx="42.5197" cy="570.472" width="85.04" height="49.6063"/>
			<g id="shadow4-23" v:groupContext="shadow" v:shadowOffsetX="0.345598" v:shadowOffsetY="-1.97279" v:shadowType="1"
					transform="matrix(1,0,0,1,0.345598,1.97279)" class="st1">
				<rect x="0" y="545.669" width="85.0394" height="49.6063" rx="5.66929" ry="5.66929" class="st2"/>
			</g>
			<rect x="0" y="545.669" width="85.0394" height="49.6063" rx="5.66929" ry="5.66929" class="st3"/>
			<text x="30.22" y="566.27" class="st4" v:langID="2057"><v:paragraph v:horizAlign="1"/><v:tabList/>CAN <v:newlineChar/><tspan
						x="22.02" dy="1.2em" class="st5">Node </tspan>1</text>		</g>
		<g id="shape9-29" v:mID="9" v:groupContext="shape" v:layerMember="0" transform="translate(440.489,-468.462)">
			<title>Dynamic connector.16</title>
			<desc>L1</desc>
			<v:textBlock v:margins="rect(4,4,4,4)" v:tabSpace="42.5197"/>
			<v:textRect cx="6.20638" cy="643.826" width="40" height="27.2035"/>
			<path d="M7.09 595.28 L7.09 698.94" class="st6"/>
			<text x="2.5" y="641.43" class="st8" v:langID="2057"><v:paragraph v:horizAlign="1"/><v:tabList/>L1<v:newlineChar/></text>		</g>
		<g id="shape13-39" v:mID="13" v:groupContext="shape" transform="translate(389.578,-398.699)">
			<title>Simple Double Arrow</title>
			<v:userDefs>
				<v:ud v:nameU="visVersion" v:val="VT0(15):26"/>
				<v:ud v:nameU="ArrowType" v:prompt="" v:val="VT0(3):26"/>
			</v:userDefs>
			<g id="shadow13-40" v:groupContext="shadow" v:shadowOffsetX="0.345598" v:shadowOffsetY="-1.97279" v:shadowType="1"
					transform="matrix(1,0,0,1,0.345598,1.97279)" class="st1">
				<path d="M0 595.28 L11.34 583.94 L11.34 589.61 L104.39 589.61 L104.39 583.94 L115.73 595.28 L104.39 606.61 L104.39
							 600.94 L11.34 600.94 L11.34 606.61 L0 595.28 Z" class="st9"/>
			</g>
			<path d="M0 595.28 L11.34 583.94 L11.34 589.61 L104.39 589.61 L104.39 583.94 L115.73 595.28 L104.39 606.61 L104.39 600.94
						 L11.34 600.94 L11.34 606.61 L0 595.28 Z" class="st10"/>
		</g>
		<g id="shape15-44" v:mID="15" v:groupContext="shape" transform="translate(390.032,-209.615)">
			<title>Simple Double Arrow.15</title>
			<v:userDefs>
				<v:ud v:nameU="visVersion" v:val="VT0(15):26"/>
				<v:ud v:nameU="ArrowType" v:prompt="" v:val="VT0(3):26"/>
			</v:userDefs>
			<g id="shadow15-45" v:groupContext="shadow" v:shadowOffsetX="0.345598" v:shadowOffsetY="-1.97279" v:shadowType="1"
					transform="matrix(1,0,0,1,0.345598,1.97279)" class="st1">
				<path d="M0 595.28 L11.34 583.94 L11.34 589.61 L104.39 589.61 L104.39 583.94 L115.73 595.28 L104.39 606.61 L104.39
							 600.94 L11.34 600.94 L11.34 606.61 L0 595.28 Z" class="st9"/>
			</g>
			<path d="M0 595.28 L11.34 583.94 L11.34 589.61 L104.39 589.61 L104.39 583.94 L115.73 595.28 L104.39 606.61 L104.39 600.94
						 L11.34 600.94 L11.34 606.61 L0 595.28 Z" class="st10"/>
		</g>
		<g id="shape18-49" v:mID="18" v:groupContext="shape" transform="translate(1145.79,224.907) rotate(90)">
			<title>Simple Double Arrow.18</title>
			<v:userDefs>
				<v:ud v:nameU="visVersion" v:val="VT0(15):26"/>
				<v:ud v:nameU="ArrowType" v:prompt="" v:val="VT0(3):26"/>
			</v:userDefs>
			<g id="shadow18-50" v:groupContext="shadow" v:shadowOffsetX="0.345598" v:shadowOffsetY="-1.97279" v:shadowType="1"
					transform="matrix(1,0,0,1,1.97279,-0.345598)" class="st1">
				<path d="M0 595.28 L11.34 583.94 L11.34 589.61 L123.31 589.61 L123.31 583.94 L134.65 595.28 L123.31 606.61 L123.31
							 600.94 L11.34 600.94 L11.34 606.61 L0 595.28 Z" class="st9"/>
			</g>
			<path d="M0 595.28 L11.34 583.94 L11.34 589.61 L123.31 589.61 L123.31 583.94 L134.65 595.28 L123.31 606.61 L123.31 600.94
						 L11.34 600.94 L11.34 606.61 L0 595.28 Z" class="st10"/>
		</g>
		<g id="shape20-54" v:mID="20" v:groupContext="shape" transform="translate(941.028,223.415) rotate(90)">
			<title>Simple Double Arrow.20</title>
			<v:userDefs>
				<v:ud v:nameU="visVersion" v:val="VT0(15):26"/>
				<v:ud v:nameU="ArrowType" v:prompt="" v:val="VT0(3):26"/>
			</v:userDefs>
			<g id="shadow20-55" v:groupContext="shadow" v:shadowOffsetX="0.345598" v:shadowOffsetY="-1.97279" v:shadowType="1"
					transform="matrix(1,0,0,1,1.97279,-0.345598)" class="st1">
				<path d="M0 595.28 L11.34 583.94 L11.34 589.61 L123.68 589.61 L123.68 583.94 L135.02 595.28 L123.68 606.61 L123.68
							 600.94 L11.34 600.94 L11.34 606.61 L0 595.28 Z" class="st9"/>
			</g>
			<path d="M0 595.28 L11.34 583.94 L11.34 589.61 L123.68 589.61 L123.68 583.94 L135.02 595.28 L123.68 606.61 L123.68 600.94
						 L11.34 600.94 L11.34 606.61 L0 595.28 Z" class="st10"/>
		</g>
		<g id="shape21-59" v:mID="21" v:groupContext="shape" v:layerMember="0" transform="translate(440.489,-240.378)">
			<title>Dynamic connector.21</title>
			<desc>L3</desc>
			<v:textBlock v:margins="rect(4,4,4,4)" v:tabSpace="42.5197"/>
			<v:textRect cx="6.20638" cy="643.826" width="40" height="27.2035"/>
			<path d="M7.09 595.28 L7.09 698.94" class="st6"/>
			<text x="2.5" y="641.43" class="st8" v:langID="2057"><v:paragraph v:horizAlign="1"/><v:tabList/>L3<v:newlineChar/></text>		</g>
		<g id="shape22-67" v:mID="22" v:groupContext="shape" v:layerMember="0" transform="translate(564.415,-365.304)">
			<title>Dynamic connector.22</title>
			<desc>L2</desc>
			<v:textBlock v:margins="rect(4,4,4,4)" v:tabSpace="42.5197"/>
			<v:textRect cx="12.8611" cy="656.138" width="40" height="27.2035"/>
			<path d="M7.09 595.28 L7.09 716.89" class="st6"/>
			<text x="9.15" y="653.74" class="st8" v:langID="2057"><v:paragraph v:horizAlign="1"/><v:tabList/>L2<v:newlineChar/></text>		</g>
		<g id="shape23-75" v:mID="23" v:groupContext="shape" v:layerMember="0" transform="translate(315.24,-365.304)">
			<title>Dynamic connector.23</title>
			<desc>L4</desc>
			<v:textBlock v:margins="rect(4,4,4,4)" v:tabSpace="42.5197"/>
			<v:textRect cx="1.10643" cy="656.138" width="40" height="27.2035"/>
			<path d="M7.09 595.28 L7.09 716.89" class="st6"/>
			<text x="-2.6" y="653.74" class="st8" v:langID="2057"><v:paragraph v:horizAlign="1"/><v:tabList/>L4<v:newlineChar/></text>		</g>
	</g>
</svg>
